<?xml version="1.0" encoding="UTF-8"?>
<svg id="Layer_1" xmlns="http://www.w3.org/2000/svg" version="1.1" viewBox="0 0 315 100">
  <!-- Generator: Adobe Illustrator 29.8.1, SVG Export Plug-In . SVG Version: 2.1.1 Build 2)  -->
  <defs>
    <style>
      .st0 {
        fill: #4cdd00;
      }
    </style>
  </defs>
  <g>
    <path class="st0" d="M242.68,55.91l9.97,10.62-.22.43-6.46-.25-2.86-2.78c-5.37-.56-15.7,2.38-16.55-5.56-.23-2.18-.26-8.3.3-10.27.52-1.8,1.87-3.32,3.64-3.95,2.98-1.05,12.86-.79,16.24-.34,2.69.36,4.74,2.66,5.09,5.31.25,1.87.28,9.07-.27,10.67-.08.25-.46,1.04-.65,1.09l-4.33-4.56c-.54-2.2,1.03-7.48-2.18-8.01-1.57-.26-8.56-.24-10.19-.02-1.47.2-2.13,1.59-2.26,2.94-.15,1.51-.24,6.06.64,7.16.18.23,1.24.97,1.41.97h5.31c-.56-1.36-2.19-2.09-2.82-3.47h6.18Z"/>
    <path class="st0" d="M257.17,45.37c1.52-1.45,4.08-1.71,6.09-1.82,2.68-.15,6.22-.14,8.91,0,3.1.16,6.21.46,7.63,3.64,1.14,2.55,1.04,10.68-.05,13.27-.98,2.31-3.22,3.29-5.63,3.48-3.27.26-9.57.31-12.79,0-4.22-.42-5.92-3.05-6.19-7.04-.22-3.22-.42-9.2,2.04-11.53ZM261.5,58.66c.47.47,1.12.67,1.76.73,2.14.2,7.01.23,9.12,0,.83-.09,2-.53,2.33-1.36.29-.73.3-6.58.17-7.65-.15-1.23-1.1-1.92-2.28-2.05-2.1-.24-7.44-.24-9.55-.01-1.32.14-2.11.98-2.26,2.29s-.19,5.48.01,6.71c.06.37.45,1.09.71,1.35Z"/>
    <path class="st0" d="M155.97,43.77c4.53,4.11,8.4,8.87,12.9,13.01l-.21-13.01h5.64v20.16h-5.74l-12.9-13.01v13.01h-5.42v-19.84c0-.07-.27-.17-.22-.33h5.96Z"/>
    <path class="st0" d="M289.71,43.77l12.68,12.9c.59.22,0-.41,0-.43v-12.47h5.42v20.16h-5.53l-12.9-13.01v13.01h-5.42v-20.16h5.74Z"/>
    <polygon class="st0" points="196.83 63.93 207.56 43.99 214.29 43.75 225.44 63.93 219.16 63.93 217.1 60.03 207.89 60.03 210.16 55.7 215.04 55.7 211.03 48.33 202.79 63.93 196.83 63.93"/>
    <path class="st0" d="M103.41,57.65v6.29h-5.42v-10.84h16.8c.81,0,1.38-1.6,1.39-2.3.03-2.51-1.75-2.56-3.76-2.7-1.63-.11-3.56-.02-5.22,0-1.57.02-5.42.8-6.61-.31l-2.6-4.02h18.53c.83,0,3.18,1.18,3.79,1.84,1.91,2.06,1.9,8.5-.23,10.39-1.56,1.38-2.81,1.24-4.66,1.41-.27.03-.57.23-.64.23h-11.38Z"/>
    <path class="st0" d="M144.38,51.58l-1.44,4.09-12.45.12c-.3.21-.42,3.17.12,3.59h16.37l-.43,4.55h-21.57l-.33-.33v-11.71l.33-.33h19.4Z"/>
    <polygon class="st0" points="201.17 43.77 198.46 48.32 191.41 48.32 191.41 63.93 185.99 63.93 185.99 48.65 185.67 48.32 177.11 48.32 177.11 43.77 201.17 43.77"/>
    <path class="st0" d="M146.76,43.77l-.49,4.28c-.2.03-.58.27-.7.27h-20.59l-.33-.33v-3.47c0-.12.34-.48.22-.76h21.89Z"/>
  </g>
  <g>
    <path class="st0" d="M64.53,42.84c-.02-.13,0-.25-.12-.34l-16.22-6.11-16.1,6.11c-.12.09-.11.22-.12.34-.3,2.48.18,6.31.62,8.81.92,5.2,3.2,10.41,6.65,14.4l.06-18.84-5.23-3.14,14.18-5.35v3.6c2.16,1.14,4.33,2.29,6.47,3.47.41.23,2.09,1.36,2.33,1.4.19.03.35-.06.5-.15l4.71-2.85c.24-.03.15,0,.17.17.14,1.04-.12,3.29-.25,4.41-.36,3.22-1.26,6.37-2.43,9.37-.11.11-2.26-1.58-2.56-1.69-.13-.05-.23-.09-.37-.04l-8.57,4.92v9.94l-2.67-1.86v2.62l2.79,1.98c4.18-3.02,8.12-6.31,10.98-10.65,3.25-4.95,4.93-10.99,5.19-16.9.04-.98.11-2.69,0-3.62ZM52.55,40.35c.06-.05,1.18.35,1.26.54l.6,3.76-1.86-4.3ZM55.58,64.93l-.25.03-4.99-3.44,5.93,2.33-.69,1.09Z"/>
    <path class="st0" d="M67.66,81.74h-16.86l5.87-4.06-1.43-3.92c-.07-.12-.13-.3-.31-.26-.11.02-1.43,1.23-1.71,1.44-1.37,1.05-2.8,2-4.17,3.04v3.78h-20.23l9.72-13.37c.15-.03,1.4,1.43,1.67,1.68,2.46,2.32,5.28,4.29,8.06,6.2,3.4-2.34,6.82-4.78,9.55-7.89l9.82,13.37ZM32.43,79.88h8.6c-.16-.19-1.36-1.16-1.45-1.16h-4.82l1.93-2.67,3.01,1.51,1.69-4.13c-.04-.14-.25-.03-.35,0-1.74.4-3.6,1.33-5.31,1.89l-3.29,4.57ZM47.31,80.99c-.05-1.04.04-2.1,0-3.14l-4.65-3.37,4.54,6.8.11-.29c-.01-.11,0,.04,0,0ZM64.17,79.88l-3.33-4.41-.96.63,1.85,2.62h-4.71l-1.45,1.16h8.6Z"/>
    <path class="st0" d="M64.4,57.21l.54-1.4,4.34-.06c.34-.48,1.6-1.22,1.81-1.69.13-.29-.21-.81.15-1.59.53-1.14,1.37-.87,1.74-1.23.17-.16.31-1.11.61-1.31l4.24-1.46.52-1.45-.16-.17-6.84,2.23c-.74.4-1.93,3.63-2.47,4.51-.2.33-.32.68-.73.78-.31.08-2.3.09-2.65.03-.13-.02-.22-.05-.27-.17l.35-1.33,2.06-.03,2.58-5.27,10.76-3.54.16.16-11.63,36.34-10.21-13.81c-.03-.21.84-1.46,1.07-1.42l2.46,3.24,1.55-4.62c.1-.19-.45-.96-.5-.96h-2.03l.6-1.38c.09-.06,1.92-.06,2.13-.02.46.09,1.02,1.58,1.41,1.97l-2.05,6.35c-.02.3.85,1.33,1.16,1.56l2.63-8.08-1.99-3.31h-2.38l.46-1.32c.37-.45,2.59-.07,3.2-.07.43,0,.8-.12,1.16-.13,2.11-.02,4.24-.02,6.34.07l2.79-8.26c-.04-.14-.25-.03-.35,0-.44.1-2.58.81-2.65,1.18.67,1.11.99,2.51-.26,3.35-.86.57-1.08.13-1.8.17-.55.03-1.81,1.79-2.44,2.1h-5.41ZM73.44,53.8c.81-.67-.49-1.71-1.02-.96-.49.68.43,1.45,1.02.96ZM74.05,60.12h-6.51c.15.85,1.8,2.45,1.74,3.18l-3.13,9.67,2.49,3.55.29-.08.47-1.95c-.24-.62-1.74-1.96-1.72-2.54l3-9.14c.1-.07,1.06.36,1.24.44.29.13.8.63,1.02.37.12-.14,1.24-3.37,1.1-3.49ZM70.45,71.63l1.96-6.25-.09-.2-.82-.24-1.85,5.49c-.03.48.43.95.81,1.2Z"/>
    <path class="st0" d="M32.43,63.02c.03.27-.28.48-.33.67-.16.65,1.33,4.02,1.49,4.91l2.51-3.25c.21-.04,1.2,1.2,1.07,1.54l-10.16,13.57-11.67-36.23c-.06-.23.1-.18.26-.14,3.56,1.03,7.07,2.54,10.66,3.53l2.58,5.27,2.19.02.23,1.51h-3.08l-2.9-5.24-6.98-2.32c-.24-.05-.16-.02-.12.12.09.28.38,1.4.47,1.51.29.35,3.74,1.14,4.36,1.57.22.22.35,1.07.49,1.19.35.29,1.05.1,1.58.92.56.87.16,1.56.31,1.89.05.11,1.69,1.64,1.81,1.69l4.34.08.54,1.38h-5.41l-2.3-2.13c-.73.15-1.04.25-1.75-.1-.93-.47-1.24-1.48-.87-2.45.16-.42.63-.63.38-1.13-.08-.15-2.15-.9-2.49-.99-.1-.03-.36-.12-.36,0l2.59,8.17,10.61.03c.35.07.56,1.15.75,1.51h-2.5c-.63,1.08-1.49,2.13-1.92,3.31l2.74,8.08.97-1.54-2.05-6.29c.37-.36,1.02-1.98,1.43-2.06.24-.05,2.01-.03,2.15.06l.7,1.34h-2.33ZM23.44,52.58c-.84.08-.86,1.43.09,1.37,1.01-.07.82-1.45-.09-1.37ZM29.06,60.12h-6.63l1.22,3.6,2.15-.92,3,9.22c-.18.67-1.67,2.04-1.71,2.58-.02.22.36,1.48.46,1.74.06.14.07.32.29.29l2.49-3.66-3.1-9.79,1.83-3.06ZM26.27,71.63c.05-.04.65-1.06.58-1.21l-1.91-5.64-.76.4-.09.21,1.95,6.08c-.05.18.16.23.24.16Z"/>
    <path class="st0" d="M60.16,83.72s.13-.14.23-.12v.24s-3.52,2.75-3.52,2.75c-9.18.35-18.43.06-27.64.15l-.35.11-.86,1.29h26.97l-3.78,3.02h-29.35l5.35-7.44h32.96Z"/>
    <path class="st0" d="M85.09,37.44l-20.75-14.65-.06-.23c1.48.31,3.12-.03,4.6.11.72.07,1.27.57,1.88.91l21.07,14.73-8.77,2.97-26.61-18.39-.43-.44,5.63.24,21.42,14.97c.66.39,1.33-.2,2.02-.21Z"/>
    <polygon class="st0" points="43.94 70.7 41.16 68.31 40.93 67.72 40.94 48.16 48.1 44.21 48.48 44.23 55.55 48.16 55.57 55.06 55.26 55.45 45.57 60.81 45.57 57.33 52.49 53.49 52.55 49.97 48.29 47.56 43.94 49.88 43.94 70.7"/>
    <path class="st0" d="M47.2,17.85l-17.85,12.5-.06-.17c2.04-4.36,3.78-8.89,6.05-13.14l11.86-8.2v9.01ZM44.18,16.22v-1.69l-8.45,5.85-1.08,2.35.3-.05,9.24-6.46Z"/>
    <path class="st0" d="M66.38,46.86v-5.58l-5.55-2.18c-.17-.06-.23-.14-.26-.32-.06-.33-.04-1.84.06-2.15,1.36-1.55,2.48-3.47,3.78-5.03.08-.1.41-.44.51-.45l15.75,10.88-14.3,4.83ZM65.05,34.07l-.76.98,1.09.75.77-.98-1.1-.76ZM67.33,35.83l-.59.96,1.1.75.74-.97c-.22-.2-.97-.9-1.25-.74ZM73.01,42.91l-9.73-6.62-.73.97,8.83,6.17c.24.25,1.74-.35,1.62-.52ZM76.26,41.75l-6.16-4.14h-.35s-.57.83-.57.83l5.69,3.95c.26.02,1.58-.36,1.39-.64Z"/>
    <path class="st0" d="M30.11,46.86l-14.18-4.83,15.81-10.99c.4.67.88,1.34,1.35,1.97.51.67,2.59,3.08,2.77,3.62.1.3.12,1.81.06,2.15-.03.17-.09.26-.26.32l-5.55,2.18v5.58ZM31.35,34.08l-1,.74.76.98,1.09-.75-.7-.93-.16-.04ZM28.92,35.83c-.09.02-.87.57-.89.64l.63,1.08,1.1-.76c.06-.21-.53-1.03-.84-.96ZM23.6,43.14l1.36.38,8.97-6.27-.74-.97-9.59,6.85ZM20.11,41.98l1.38.41.21-.03,5.61-3.93-.75-.98-6.45,4.52Z"/>
    <path class="st0" d="M77.19,63.26l3.15,14.82-3.9,11.91-5.39-7.28-.13-.44,6.03-18.86.24-.16ZM77.3,73.02c-.06-.06-.29-.03-.24.16l-2.66,8.63.99,1.44c.14,0,.48-1.09.55-1.3.39-1.13,1.86-5.21,1.92-6.11.01-.23-.45-2.72-.55-2.82Z"/>
    <path class="st0" d="M20.23,90l-.24-.07-7.2-22.37,11.39,10.87c.36.46,1.36,3.16,1.47,3.78.03.16.07.27-.06.41l-5.36,7.38Z"/>
    <path class="st0" d="M18.95,61.74l-11.49-11.01c-1.39-3.4-2.41-6.98-3.51-10.5l9.07,3.07,5.92,18.44ZM13.14,53.49l-2.7-7.82-1.72-.78c-.02.16.02.31.05.47.27,1.16,1.44,4.71,1.98,5.7.38.7,1.39,1.61,1.99,2.19.12.12.17.3.39.24Z"/>
    <path class="st0" d="M92.53,40.23l-6.92,21.74-3.19-14.96c-.02-.53.92-3.64,1.16-3.82l8.95-2.97Z"/>
    <polygon class="st0" points="74.63 91.16 54.06 91.16 63.25 83.78 69.29 83.78 74.63 91.16"/>
    <path class="st0" d="M49.29,8.84l17.44,12.09c-4.39-.07-8.78-.24-13.19-.24l-4.25-2.84v-9.01Z"/>
    <path class="st0" d="M21.97,26.16c.08.1-.67,1.89-.79,2.17-1.57,3.71-3.23,7.47-4.96,11.08l-2.77,1.86-8.79-2.96,17.32-12.15Z"/>
    <path class="st0" d="M23.25,75.23l-11.49-11.12-3.39-9.92c.22-.05.28.12.41.23,3.87,3.24,7.42,7.39,11.2,10.77,1.31,3.24,2.37,6.65,3.27,10.04Z"/>
    <path class="st0" d="M81.37,50.23l3.03,14.94-.16,1.01-2.76,8.58-.31-.56-2.95-14.38c.99-3.06,1.8-6.41,2.9-9.43.06-.16-.04-.2.24-.16Z"/>
    <polygon class="st0" points="19.07 37.33 24.82 24.31 32.43 19.07 26.62 32.16 19.47 37.21 19.07 37.33"/>
    <path class="st0" d="M49.29,20.23l11.68,8.14.04,4.1c-.13.56-1.33,1.31-1.66,1.83-.46.73-.07,3.23-.06,4.18l-1.41-.51-.08-3.94c.02-.15.13-.25.21-.37.26-.38,1.41-1.38,1.49-1.65s.07-1.96.03-2.31c-.02-.13,0-.25-.12-.34l-1.63-.99v3.66s-.18.18-.23.24c-.24.12-1.09-.55-1.14-.73-.3-.97.4-3.48-.01-4.17l-5.59-3.89v11.74l-1.51-.47v-14.53Z"/>
    <path class="st0" d="M47.2,20.35v14.42l-1.51.46-.06-11.86-5.41,3.88c-.37.52.12,3.41-.16,4.26-.05.15-.74.77-.84.79-.18.05-.5-.18-.5-.28v-3.66l-1.45.93c-.15.11-.25.22-.29.41-.05.28-.05,2.06.02,2.3s1.01.99,1.25,1.31c.19.25.43.49.48.8.15,1.14-.11,2.64-.02,3.83l-1.38.54v-3.9l-1.84-2.23c.04-1.34-.22-2.82.16-4.1l11.56-7.91Z"/>
    <path class="st0" d="M40.57,37.21v-3.66c.26-.66,1.52-1.26,1.62-1.87.24-1.37-.07-.99-.69-1.74-1.38-1.64.93-4.1,2.74-2.62,1.23,1,.57,2.64-.63,3.33l-.07,1.9-1.43,1.48-.08,2.59-1.45.58ZM42.63,28.16c-.26.09-.37.58-.29.83.64,1.12,2.11-.42.92-.79-.19-.06-.43-.1-.63-.04Z"/>
    <path class="st0" d="M55.92,37.21c-1.91-.39-1.33-.59-1.39-2.04-.01-.25-.09-1.06-.14-1.25-.1-.36-1.26-1.12-1.43-1.48-.21-.46.07-1.3-.08-1.78-.06-.21-.67-.51-.89-.85-1.02-1.62.62-3.56,2.45-2.68,1.43.68,1.28,2.8-.15,3.42-.36,1.49.8,1.93,1.63,2.88v3.78ZM54.03,28.29c-.43-.43-1.4.05-1.17.63.44,1.09,1.87.07,1.17-.63Z"/>
    <rect class="st0" x="50.14" y="61.18" width="6.65" height="4.05"/>
    <rect class="st0" x="50.62" y="40.47" width="6.65" height="4.05" transform="translate(24.69 -19.63) rotate(26.56)"/>
  </g>
</svg>